<svg width="50" height="50" viewBox="0 0 50 50" fill="none" xmlns="http://www.w3.org/2000/svg">
<path d="M50 25C50 38.8071 38.8071 50 25 50C11.1929 50 0 38.8071 0 25C0 11.1929 11.1929 0 25 0C38.8071 0 50 11.1929 50 25Z" fill="#F1F1F1"/>
<path d="M24.5 15C18.1504 15 13 19.5 13 25C13 28.0996 14.6504 31.0508 17.5 32.9004C17.4492 33.4492 17.1504 34.6992 16.0996 36.1992L15.5508 37H16.5508C19.25 37 21.0996 35.3496 21.6992 34.6992C22.5996 34.9004 23.5508 35 24.5 35C30.8496 35 36 30.5 36 25C36 19.5 30.8496 15 24.5 15ZM19.5 26C18.9492 26 18.5 25.5508 18.5 25C18.5 24.4492 18.9492 24 19.5 24C20.0508 24 20.5 24.4492 20.5 25C20.5 25.5508 20.0508 26 19.5 26ZM24.5 26C23.9492 26 23.5 25.5508 23.5 25C23.5 24.4492 23.9492 24 24.5 24C25.0508 24 25.5 24.4492 25.5 25C25.5 25.5508 25.0508 26 24.5 26ZM29.5 26C28.9492 26 28.5 25.5508 28.5 25C28.5 24.4492 28.9492 24 29.5 24C30.0508 24 30.5 24.4492 30.5 25C30.5 25.5508 30.0508 26 29.5 26Z" fill="black"/>
</svg>
