<svg width="50" height="50" viewBox="0 0 50 50" fill="none" xmlns="http://www.w3.org/2000/svg">
<path d="M50 25C50 38.8071 38.8071 50 25 50C11.1929 50 0 38.8071 0 25C0 11.1929 11.1929 0 25 0C38.8071 0 50 11.1929 50 25Z" fill="#F1F1F1"/>
<path d="M24.5 35.1504L24.1797 34.8848C23.5723 34.377 22.75 33.8262 21.7969 33.1895C18.084 30.7031 13 27.3008 13 21.5C13 17.916 15.916 15 19.5 15C21.4473 15 23.2715 15.8672 24.5 17.3496C25.7285 15.8672 27.5527 15 29.5 15C33.084 15 36 17.916 36 21.5C36 27.3008 30.916 30.7031 27.2031 33.1895C26.25 33.8262 25.4277 34.377 24.8203 34.8848L24.5 35.1504Z" fill="black"/>
</svg>
