<svg width="25" height="25" viewBox="0 0 25 25" fill="none" xmlns="http://www.w3.org/2000/svg">
<g clip-path="url(#clip0_28_6)">
<path d="M12.0938 1.5C11.6387 1.5 11.166 1.71875 10.7812 2.10938L4.96875 7.90625C4.64844 8.18945 4.5 8.73828 4.5 9.125V15.875C4.5 16.2578 4.6582 16.8047 4.95312 17.0625L10.75 22.8438C11.2773 23.3809 11.7637 23.5 12.0781 23.5C12.9121 23.5 13.5 22.7383 13.5 21.6563V3.15625C13.5 2.01758 12.7695 1.5 12.0938 1.5ZM1.5 7.98438C0.662109 7.98438 -0.015625 8.66211 -0.015625 9.5V15.5C-0.015625 16.3379 0.662109 17.0156 1.5 17.0156H3.73438C3.57031 16.623 3.5 16.2051 3.5 15.875V9.125C3.5 8.79688 3.58203 8.38086 3.75 7.98438H1.5ZM15.9531 9.48438C15.9316 9.48828 15.9102 9.49414 15.8906 9.5C15.7031 9.5332 15.5527 9.66992 15.5 9.85156C15.4473 10.0352 15.502 10.2305 15.6406 10.3594L17.7812 12.5L15.6406 14.6406C15.4414 14.8398 15.4414 15.1602 15.6406 15.3594C15.8398 15.5586 16.1602 15.5586 16.3594 15.3594L18.5 13.2188L20.6406 15.3594C20.8398 15.5586 21.1602 15.5586 21.3594 15.3594C21.5586 15.1602 21.5586 14.8398 21.3594 14.6406L19.2188 12.5L21.3594 10.3594C21.5215 10.209 21.5645 9.9707 21.4668 9.77344C21.3711 9.57422 21.1543 9.46484 20.9375 9.5C20.8262 9.51172 20.7207 9.5625 20.6406 9.64063L18.5 11.7813L16.3594 9.64063C16.2559 9.5293 16.1055 9.47266 15.9531 9.48438Z" fill="white"/>
</g>
<defs>
<clipPath id="clip0_28_6">
<rect width="25" height="25" fill="white"/>
</clipPath>
</defs>
</svg>
