<svg width="25" height="25" viewBox="0 0 25 25" fill="none" xmlns="http://www.w3.org/2000/svg">
<path d="M12.0996 1.5C11.6496 1.5 11.1998 1.69961 10.7998 2.09961L4.9502 7.90039C4.6502 8.20039 4.5 8.74961 4.5 9.09961V15.8496C4.5 16.2496 4.6502 16.7498 4.9502 17.0498L10.75 22.8496C11.3 23.3996 11.7496 23.5 12.0996 23.5C12.9496 23.5 13.5 22.7504 13.5 21.6504V3.15039C13.5 2.00039 12.7496 1.5 12.0996 1.5ZM1.5 7.9502C0.65 7.9502 0 8.6502 0 9.4502V15.4502C0 16.3002 0.7 16.9502 1.5 16.9502H3.75C3.6 16.6502 3.5 16.2004 3.5 15.9004V9.09961C3.5 8.74961 3.55 8.3502 3.75 7.9502H1.5ZM15.3184 9.19922C15.1976 9.2052 15.0831 9.25476 14.996 9.3387C14.9089 9.42265 14.8553 9.5353 14.8449 9.65578C14.8345 9.77627 14.8682 9.89643 14.9396 9.99402C15.011 10.0916 15.1154 10.16 15.2334 10.1865C16.2544 10.4316 17 11.3722 17 12.5C17 13.6278 16.2629 14.5249 15.2148 14.8184C15.1505 14.835 15.09 14.8643 15.0371 14.9046C14.9842 14.9449 14.9399 14.9953 14.9067 15.053C14.8735 15.1106 14.8521 15.1743 14.8439 15.2403C14.8356 15.3063 14.8406 15.3732 14.8585 15.4373C14.8764 15.5013 14.9069 15.5611 14.9483 15.6132C14.9896 15.6653 15.0409 15.7087 15.0992 15.7407C15.1575 15.7727 15.2216 15.7928 15.2877 15.7998C15.3538 15.8067 15.4207 15.8004 15.4844 15.7812C16.9363 15.3747 18 14.0722 18 12.5C18 10.9278 16.9458 9.56883 15.4668 9.21387C15.4183 9.20159 15.3683 9.19665 15.3184 9.19922V9.19922Z" fill="white"/>
</svg>
